<svg xmlns="http://www.w3.org/2000/svg" viewBox="0 0 1900 932" preserveAspectRatio="xMidYMid" width="1900" height="932" style="shape-rendering: auto; display: block; background: rgb(122, 206, 255);" xmlns:xlink="http://www.w3.org/1999/xlink"><g><g transform="translate(-100 488.35655241103) rotate(0)">
  <animateTransform begin="-62.899133300286294s" repeatCount="indefinite" dur="125s" values="-100 488.35655241103;1900 488.35655241103" keyTimes="0;1" type="translate" attributeName="transform"></animateTransform>
  <path transform="scale(0.55)" fill="#bddeff" d="M84.717,33.597c0.791-2.503,1.186-5.138,1.186-7.773C85.903,11.594,74.308,0,60.079,0 c-9.881,0-18.445,5.534-22.793,13.702c-1.581-0.527-3.426-0.791-5.138-0.791c-9.486,0-17.128,7.642-17.128,17.128 c0,1.186,0.132,2.372,0.395,3.426C6.719,34.783,0,42.424,0,51.515C0,61.66,8.169,69.829,18.314,69.829h63.373 C91.831,69.829,100,61.66,100,51.515C99.868,42.556,93.281,35.046,84.717,33.597z"></path>
</g><g transform="translate(-100 727.8843128172941) rotate(0)">
  <animateTransform begin="-106.21126254504999s" repeatCount="indefinite" dur="125s" values="-100 727.8843128172941;1900 727.8843128172941" keyTimes="0;1" type="translate" attributeName="transform"></animateTransform>
  <path transform="scale(0.55)" fill="#bddeff" d="M84.717,33.597c0.791-2.503,1.186-5.138,1.186-7.773C85.903,11.594,74.308,0,60.079,0 c-9.881,0-18.445,5.534-22.793,13.702c-1.581-0.527-3.426-0.791-5.138-0.791c-9.486,0-17.128,7.642-17.128,17.128 c0,1.186,0.132,2.372,0.395,3.426C6.719,34.783,0,42.424,0,51.515C0,61.66,8.169,69.829,18.314,69.829h63.373 C91.831,69.829,100,61.66,100,51.515C99.868,42.556,93.281,35.046,84.717,33.597z"></path>
</g><g transform="translate(-100 160.3591497536963) rotate(0)">
  <animateTransform begin="-7.997265980884502s" repeatCount="indefinite" dur="125s" values="-100 160.3591497536963;1900 160.3591497536963" keyTimes="0;1" type="translate" attributeName="transform"></animateTransform>
  <path transform="scale(0.55)" fill="#bddeff" d="M84.717,33.597c0.791-2.503,1.186-5.138,1.186-7.773C85.903,11.594,74.308,0,60.079,0 c-9.881,0-18.445,5.534-22.793,13.702c-1.581-0.527-3.426-0.791-5.138-0.791c-9.486,0-17.128,7.642-17.128,17.128 c0,1.186,0.132,2.372,0.395,3.426C6.719,34.783,0,42.424,0,51.515C0,61.66,8.169,69.829,18.314,69.829h63.373 C91.831,69.829,100,61.66,100,51.515C99.868,42.556,93.281,35.046,84.717,33.597z"></path>
</g><g transform="translate(-100 441.94185611290766) rotate(0)">
  <animateTransform begin="-55.45098485817167s" repeatCount="indefinite" dur="125s" values="-100 441.94185611290766;1900 441.94185611290766" keyTimes="0;1" type="translate" attributeName="transform"></animateTransform>
  <path transform="scale(0.55)" fill="#bddeff" d="M84.717,33.597c0.791-2.503,1.186-5.138,1.186-7.773C85.903,11.594,74.308,0,60.079,0 c-9.881,0-18.445,5.534-22.793,13.702c-1.581-0.527-3.426-0.791-5.138-0.791c-9.486,0-17.128,7.642-17.128,17.128 c0,1.186,0.132,2.372,0.395,3.426C6.719,34.783,0,42.424,0,51.515C0,61.66,8.169,69.829,18.314,69.829h63.373 C91.831,69.829,100,61.66,100,51.515C99.868,42.556,93.281,35.046,84.717,33.597z"></path>
</g><g transform="translate(-100 154.64464723286048) rotate(0)">
  <animateTransform begin="-82.19338510220517s" repeatCount="indefinite" dur="125s" values="-100 154.64464723286048;1900 154.64464723286048" keyTimes="0;1" type="translate" attributeName="transform"></animateTransform>
  <path transform="scale(0.55)" fill="#bddeff" d="M84.717,33.597c0.791-2.503,1.186-5.138,1.186-7.773C85.903,11.594,74.308,0,60.079,0 c-9.881,0-18.445,5.534-22.793,13.702c-1.581-0.527-3.426-0.791-5.138-0.791c-9.486,0-17.128,7.642-17.128,17.128 c0,1.186,0.132,2.372,0.395,3.426C6.719,34.783,0,42.424,0,51.515C0,61.66,8.169,69.829,18.314,69.829h63.373 C91.831,69.829,100,61.66,100,51.515C99.868,42.556,93.281,35.046,84.717,33.597z"></path>
</g><g transform="translate(-100 11.29748560358425) rotate(0)">
  <animateTransform begin="-53.358831249104256s" repeatCount="indefinite" dur="125s" values="-100 11.29748560358425;1900 11.29748560358425" keyTimes="0;1" type="translate" attributeName="transform"></animateTransform>
  <path transform="scale(0.55)" fill="#bddeff" d="M84.717,33.597c0.791-2.503,1.186-5.138,1.186-7.773C85.903,11.594,74.308,0,60.079,0 c-9.881,0-18.445,5.534-22.793,13.702c-1.581-0.527-3.426-0.791-5.138-0.791c-9.486,0-17.128,7.642-17.128,17.128 c0,1.186,0.132,2.372,0.395,3.426C6.719,34.783,0,42.424,0,51.515C0,61.66,8.169,69.829,18.314,69.829h63.373 C91.831,69.829,100,61.66,100,51.515C99.868,42.556,93.281,35.046,84.717,33.597z"></path>
</g><g transform="translate(-100 443.93620023331744) rotate(0)">
  <animateTransform begin="-24.167201820373087s" repeatCount="indefinite" dur="125s" values="-100 443.93620023331744;1900 443.93620023331744" keyTimes="0;1" type="translate" attributeName="transform"></animateTransform>
  <path transform="scale(0.55)" fill="#bddeff" d="M84.717,33.597c0.791-2.503,1.186-5.138,1.186-7.773C85.903,11.594,74.308,0,60.079,0 c-9.881,0-18.445,5.534-22.793,13.702c-1.581-0.527-3.426-0.791-5.138-0.791c-9.486,0-17.128,7.642-17.128,17.128 c0,1.186,0.132,2.372,0.395,3.426C6.719,34.783,0,42.424,0,51.515C0,61.66,8.169,69.829,18.314,69.829h63.373 C91.831,69.829,100,61.66,100,51.515C99.868,42.556,93.281,35.046,84.717,33.597z"></path>
</g><g transform="translate(-100 887.3751002119286) rotate(0)">
  <animateTransform begin="-116.86594281023639s" repeatCount="indefinite" dur="125s" values="-100 887.3751002119286;1900 887.3751002119286" keyTimes="0;1" type="translate" attributeName="transform"></animateTransform>
  <path transform="scale(0.55)" fill="#bddeff" d="M84.717,33.597c0.791-2.503,1.186-5.138,1.186-7.773C85.903,11.594,74.308,0,60.079,0 c-9.881,0-18.445,5.534-22.793,13.702c-1.581-0.527-3.426-0.791-5.138-0.791c-9.486,0-17.128,7.642-17.128,17.128 c0,1.186,0.132,2.372,0.395,3.426C6.719,34.783,0,42.424,0,51.515C0,61.66,8.169,69.829,18.314,69.829h63.373 C91.831,69.829,100,61.66,100,51.515C99.868,42.556,93.281,35.046,84.717,33.597z"></path>
</g><g transform="translate(-100 188.30193111889827) rotate(0)">
  <animateTransform begin="-85.60040280028916s" repeatCount="indefinite" dur="125s" values="-100 188.30193111889827;1900 188.30193111889827" keyTimes="0;1" type="translate" attributeName="transform"></animateTransform>
  <path transform="scale(0.55)" fill="#bddeff" d="M84.717,33.597c0.791-2.503,1.186-5.138,1.186-7.773C85.903,11.594,74.308,0,60.079,0 c-9.881,0-18.445,5.534-22.793,13.702c-1.581-0.527-3.426-0.791-5.138-0.791c-9.486,0-17.128,7.642-17.128,17.128 c0,1.186,0.132,2.372,0.395,3.426C6.719,34.783,0,42.424,0,51.515C0,61.66,8.169,69.829,18.314,69.829h63.373 C91.831,69.829,100,61.66,100,51.515C99.868,42.556,93.281,35.046,84.717,33.597z"></path>
</g><g transform="translate(-100 455.3685474519312) rotate(0)">
  <animateTransform begin="-26.84874293022281s" repeatCount="indefinite" dur="125s" values="-100 455.3685474519312;1900 455.3685474519312" keyTimes="0;1" type="translate" attributeName="transform"></animateTransform>
  <path transform="scale(0.55)" fill="#bddeff" d="M84.717,33.597c0.791-2.503,1.186-5.138,1.186-7.773C85.903,11.594,74.308,0,60.079,0 c-9.881,0-18.445,5.534-22.793,13.702c-1.581-0.527-3.426-0.791-5.138-0.791c-9.486,0-17.128,7.642-17.128,17.128 c0,1.186,0.132,2.372,0.395,3.426C6.719,34.783,0,42.424,0,51.515C0,61.66,8.169,69.829,18.314,69.829h63.373 C91.831,69.829,100,61.66,100,51.515C99.868,42.556,93.281,35.046,84.717,33.597z"></path>
</g><g transform="translate(-100 485.20564095751206) rotate(0)">
  <animateTransform begin="-87.55214221923s" repeatCount="indefinite" dur="125s" values="-100 485.20564095751206;1900 485.20564095751206" keyTimes="0;1" type="translate" attributeName="transform"></animateTransform>
  <path transform="scale(0.55)" fill="#bddeff" d="M84.717,33.597c0.791-2.503,1.186-5.138,1.186-7.773C85.903,11.594,74.308,0,60.079,0 c-9.881,0-18.445,5.534-22.793,13.702c-1.581-0.527-3.426-0.791-5.138-0.791c-9.486,0-17.128,7.642-17.128,17.128 c0,1.186,0.132,2.372,0.395,3.426C6.719,34.783,0,42.424,0,51.515C0,61.66,8.169,69.829,18.314,69.829h63.373 C91.831,69.829,100,61.66,100,51.515C99.868,42.556,93.281,35.046,84.717,33.597z"></path>
</g><g transform="translate(-100 870.5303127788309) rotate(0)">
  <animateTransform begin="-83.83500263285708s" repeatCount="indefinite" dur="62.5s" values="-100 870.5303127788309;1900 870.5303127788309" keyTimes="0;1" type="translate" attributeName="transform"></animateTransform>
  <path transform="scale(0.7)" fill="#ffffff" d="M84.717,33.597c0.791-2.503,1.186-5.138,1.186-7.773C85.903,11.594,74.308,0,60.079,0 c-9.881,0-18.445,5.534-22.793,13.702c-1.581-0.527-3.426-0.791-5.138-0.791c-9.486,0-17.128,7.642-17.128,17.128 c0,1.186,0.132,2.372,0.395,3.426C6.719,34.783,0,42.424,0,51.515C0,61.66,8.169,69.829,18.314,69.829h63.373 C91.831,69.829,100,61.66,100,51.515C99.868,42.556,93.281,35.046,84.717,33.597z"></path>
</g><g transform="translate(-100 172.13693201665407) rotate(0)">
  <animateTransform begin="-23.72115922945699s" repeatCount="indefinite" dur="62.5s" values="-100 172.13693201665407;1900 172.13693201665407" keyTimes="0;1" type="translate" attributeName="transform"></animateTransform>
  <path transform="scale(0.7)" fill="#ffffff" d="M84.717,33.597c0.791-2.503,1.186-5.138,1.186-7.773C85.903,11.594,74.308,0,60.079,0 c-9.881,0-18.445,5.534-22.793,13.702c-1.581-0.527-3.426-0.791-5.138-0.791c-9.486,0-17.128,7.642-17.128,17.128 c0,1.186,0.132,2.372,0.395,3.426C6.719,34.783,0,42.424,0,51.515C0,61.66,8.169,69.829,18.314,69.829h63.373 C91.831,69.829,100,61.66,100,51.515C99.868,42.556,93.281,35.046,84.717,33.597z"></path>
</g><g transform="translate(-100 405.3789964366048) rotate(0)">
  <animateTransform begin="-65.89417671241797s" repeatCount="indefinite" dur="62.5s" values="-100 405.3789964366048;1900 405.3789964366048" keyTimes="0;1" type="translate" attributeName="transform"></animateTransform>
  <path transform="scale(0.7)" fill="#ffffff" d="M84.717,33.597c0.791-2.503,1.186-5.138,1.186-7.773C85.903,11.594,74.308,0,60.079,0 c-9.881,0-18.445,5.534-22.793,13.702c-1.581-0.527-3.426-0.791-5.138-0.791c-9.486,0-17.128,7.642-17.128,17.128 c0,1.186,0.132,2.372,0.395,3.426C6.719,34.783,0,42.424,0,51.515C0,61.66,8.169,69.829,18.314,69.829h63.373 C91.831,69.829,100,61.66,100,51.515C99.868,42.556,93.281,35.046,84.717,33.597z"></path>
</g><g transform="translate(-100 892.5426136283049) rotate(0)">
  <animateTransform begin="-14.503163423688385s" repeatCount="indefinite" dur="62.5s" values="-100 892.5426136283049;1900 892.5426136283049" keyTimes="0;1" type="translate" attributeName="transform"></animateTransform>
  <path transform="scale(0.7)" fill="#ffffff" d="M84.717,33.597c0.791-2.503,1.186-5.138,1.186-7.773C85.903,11.594,74.308,0,60.079,0 c-9.881,0-18.445,5.534-22.793,13.702c-1.581-0.527-3.426-0.791-5.138-0.791c-9.486,0-17.128,7.642-17.128,17.128 c0,1.186,0.132,2.372,0.395,3.426C6.719,34.783,0,42.424,0,51.515C0,61.66,8.169,69.829,18.314,69.829h63.373 C91.831,69.829,100,61.66,100,51.515C99.868,42.556,93.281,35.046,84.717,33.597z"></path>
</g><g transform="translate(-100 145.3675602154797) rotate(0)">
  <animateTransform begin="-93.3619464903734s" repeatCount="indefinite" dur="62.5s" values="-100 145.3675602154797;1900 145.3675602154797" keyTimes="0;1" type="translate" attributeName="transform"></animateTransform>
  <path transform="scale(0.7)" fill="#ffffff" d="M84.717,33.597c0.791-2.503,1.186-5.138,1.186-7.773C85.903,11.594,74.308,0,60.079,0 c-9.881,0-18.445,5.534-22.793,13.702c-1.581-0.527-3.426-0.791-5.138-0.791c-9.486,0-17.128,7.642-17.128,17.128 c0,1.186,0.132,2.372,0.395,3.426C6.719,34.783,0,42.424,0,51.515C0,61.66,8.169,69.829,18.314,69.829h63.373 C91.831,69.829,100,61.66,100,51.515C99.868,42.556,93.281,35.046,84.717,33.597z"></path>
</g><g transform="translate(-100 528.9374656314828) rotate(0)">
  <animateTransform begin="-40.564995406201966s" repeatCount="indefinite" dur="62.5s" values="-100 528.9374656314828;1900 528.9374656314828" keyTimes="0;1" type="translate" attributeName="transform"></animateTransform>
  <path transform="scale(0.7)" fill="#ffffff" d="M84.717,33.597c0.791-2.503,1.186-5.138,1.186-7.773C85.903,11.594,74.308,0,60.079,0 c-9.881,0-18.445,5.534-22.793,13.702c-1.581-0.527-3.426-0.791-5.138-0.791c-9.486,0-17.128,7.642-17.128,17.128 c0,1.186,0.132,2.372,0.395,3.426C6.719,34.783,0,42.424,0,51.515C0,61.66,8.169,69.829,18.314,69.829h63.373 C91.831,69.829,100,61.66,100,51.515C99.868,42.556,93.281,35.046,84.717,33.597z"></path>
</g><g transform="translate(-100 317.44735298094207) rotate(0)">
  <animateTransform begin="-58.722754472963814s" repeatCount="indefinite" dur="62.5s" values="-100 317.44735298094207;1900 317.44735298094207" keyTimes="0;1" type="translate" attributeName="transform"></animateTransform>
  <path transform="scale(0.7)" fill="#ffffff" d="M84.717,33.597c0.791-2.503,1.186-5.138,1.186-7.773C85.903,11.594,74.308,0,60.079,0 c-9.881,0-18.445,5.534-22.793,13.702c-1.581-0.527-3.426-0.791-5.138-0.791c-9.486,0-17.128,7.642-17.128,17.128 c0,1.186,0.132,2.372,0.395,3.426C6.719,34.783,0,42.424,0,51.515C0,61.66,8.169,69.829,18.314,69.829h63.373 C91.831,69.829,100,61.66,100,51.515C99.868,42.556,93.281,35.046,84.717,33.597z"></path>
</g><g transform="translate(-100 577.7145370776993) rotate(0)">
  <animateTransform begin="-80.48263951730868s" repeatCount="indefinite" dur="62.5s" values="-100 577.7145370776993;1900 577.7145370776993" keyTimes="0;1" type="translate" attributeName="transform"></animateTransform>
  <path transform="scale(0.7)" fill="#ffffff" d="M84.717,33.597c0.791-2.503,1.186-5.138,1.186-7.773C85.903,11.594,74.308,0,60.079,0 c-9.881,0-18.445,5.534-22.793,13.702c-1.581-0.527-3.426-0.791-5.138-0.791c-9.486,0-17.128,7.642-17.128,17.128 c0,1.186,0.132,2.372,0.395,3.426C6.719,34.783,0,42.424,0,51.515C0,61.66,8.169,69.829,18.314,69.829h63.373 C91.831,69.829,100,61.66,100,51.515C99.868,42.556,93.281,35.046,84.717,33.597z"></path>
</g><g transform="translate(-100 134.894524260144) rotate(0)">
  <animateTransform begin="-109.7595916081679s" repeatCount="indefinite" dur="62.5s" values="-100 134.894524260144;1900 134.894524260144" keyTimes="0;1" type="translate" attributeName="transform"></animateTransform>
  <path transform="scale(0.7)" fill="#ffffff" d="M84.717,33.597c0.791-2.503,1.186-5.138,1.186-7.773C85.903,11.594,74.308,0,60.079,0 c-9.881,0-18.445,5.534-22.793,13.702c-1.581-0.527-3.426-0.791-5.138-0.791c-9.486,0-17.128,7.642-17.128,17.128 c0,1.186,0.132,2.372,0.395,3.426C6.719,34.783,0,42.424,0,51.515C0,61.66,8.169,69.829,18.314,69.829h63.373 C91.831,69.829,100,61.66,100,51.515C99.868,42.556,93.281,35.046,84.717,33.597z"></path>
</g><g transform="translate(-100 675.3162959620786) rotate(0)">
  <animateTransform begin="-38.00059320807993s" repeatCount="indefinite" dur="62.5s" values="-100 675.3162959620786;1900 675.3162959620786" keyTimes="0;1" type="translate" attributeName="transform"></animateTransform>
  <path transform="scale(0.7)" fill="#ffffff" d="M84.717,33.597c0.791-2.503,1.186-5.138,1.186-7.773C85.903,11.594,74.308,0,60.079,0 c-9.881,0-18.445,5.534-22.793,13.702c-1.581-0.527-3.426-0.791-5.138-0.791c-9.486,0-17.128,7.642-17.128,17.128 c0,1.186,0.132,2.372,0.395,3.426C6.719,34.783,0,42.424,0,51.515C0,61.66,8.169,69.829,18.314,69.829h63.373 C91.831,69.829,100,61.66,100,51.515C99.868,42.556,93.281,35.046,84.717,33.597z"></path>
</g><g transform="translate(-100 196.24038603244105) rotate(0)">
  <animateTransform begin="-67.54785030555806s" repeatCount="indefinite" dur="62.5s" values="-100 196.24038603244105;1900 196.24038603244105" keyTimes="0;1" type="translate" attributeName="transform"></animateTransform>
  <path transform="scale(0.7)" fill="#ffffff" d="M84.717,33.597c0.791-2.503,1.186-5.138,1.186-7.773C85.903,11.594,74.308,0,60.079,0 c-9.881,0-18.445,5.534-22.793,13.702c-1.581-0.527-3.426-0.791-5.138-0.791c-9.486,0-17.128,7.642-17.128,17.128 c0,1.186,0.132,2.372,0.395,3.426C6.719,34.783,0,42.424,0,51.515C0,61.66,8.169,69.829,18.314,69.829h63.373 C91.831,69.829,100,61.66,100,51.515C99.868,42.556,93.281,35.046,84.717,33.597z"></path>
</g><g transform="translate(-100 693.1051993065079) rotate(0)">
  <animateTransform begin="-97.16679204486752s" repeatCount="indefinite" dur="41.666666666666664s" values="-100 693.1051993065079;1900 693.1051993065079" keyTimes="0;1" type="translate" attributeName="transform"></animateTransform>
  <path transform="scale(0.85)" fill="#f1f2f3" d="M84.717,33.597c0.791-2.503,1.186-5.138,1.186-7.773C85.903,11.594,74.308,0,60.079,0 c-9.881,0-18.445,5.534-22.793,13.702c-1.581-0.527-3.426-0.791-5.138-0.791c-9.486,0-17.128,7.642-17.128,17.128 c0,1.186,0.132,2.372,0.395,3.426C6.719,34.783,0,42.424,0,51.515C0,61.66,8.169,69.829,18.314,69.829h63.373 C91.831,69.829,100,61.66,100,51.515C99.868,42.556,93.281,35.046,84.717,33.597z"></path>
</g><g transform="translate(-100 693.2183191516317) rotate(0)">
  <animateTransform begin="-11.668342764476971s" repeatCount="indefinite" dur="41.666666666666664s" values="-100 693.2183191516317;1900 693.2183191516317" keyTimes="0;1" type="translate" attributeName="transform"></animateTransform>
  <path transform="scale(0.85)" fill="#f1f2f3" d="M84.717,33.597c0.791-2.503,1.186-5.138,1.186-7.773C85.903,11.594,74.308,0,60.079,0 c-9.881,0-18.445,5.534-22.793,13.702c-1.581-0.527-3.426-0.791-5.138-0.791c-9.486,0-17.128,7.642-17.128,17.128 c0,1.186,0.132,2.372,0.395,3.426C6.719,34.783,0,42.424,0,51.515C0,61.66,8.169,69.829,18.314,69.829h63.373 C91.831,69.829,100,61.66,100,51.515C99.868,42.556,93.281,35.046,84.717,33.597z"></path>
</g><g transform="translate(-100 276.31583076280566) rotate(0)">
  <animateTransform begin="-33.2819569492816s" repeatCount="indefinite" dur="41.666666666666664s" values="-100 276.31583076280566;1900 276.31583076280566" keyTimes="0;1" type="translate" attributeName="transform"></animateTransform>
  <path transform="scale(0.85)" fill="#f1f2f3" d="M84.717,33.597c0.791-2.503,1.186-5.138,1.186-7.773C85.903,11.594,74.308,0,60.079,0 c-9.881,0-18.445,5.534-22.793,13.702c-1.581-0.527-3.426-0.791-5.138-0.791c-9.486,0-17.128,7.642-17.128,17.128 c0,1.186,0.132,2.372,0.395,3.426C6.719,34.783,0,42.424,0,51.515C0,61.66,8.169,69.829,18.314,69.829h63.373 C91.831,69.829,100,61.66,100,51.515C99.868,42.556,93.281,35.046,84.717,33.597z"></path>
</g><g transform="translate(-100 673.4561159177304) rotate(0)">
  <animateTransform begin="-23.96375421797437s" repeatCount="indefinite" dur="41.666666666666664s" values="-100 673.4561159177304;1900 673.4561159177304" keyTimes="0;1" type="translate" attributeName="transform"></animateTransform>
  <path transform="scale(0.85)" fill="#f1f2f3" d="M84.717,33.597c0.791-2.503,1.186-5.138,1.186-7.773C85.903,11.594,74.308,0,60.079,0 c-9.881,0-18.445,5.534-22.793,13.702c-1.581-0.527-3.426-0.791-5.138-0.791c-9.486,0-17.128,7.642-17.128,17.128 c0,1.186,0.132,2.372,0.395,3.426C6.719,34.783,0,42.424,0,51.515C0,61.66,8.169,69.829,18.314,69.829h63.373 C91.831,69.829,100,61.66,100,51.515C99.868,42.556,93.281,35.046,84.717,33.597z"></path>
</g><g transform="translate(-100 68.48169003318438) rotate(0)">
  <animateTransform begin="-43.3911604149266s" repeatCount="indefinite" dur="41.666666666666664s" values="-100 68.48169003318438;1900 68.48169003318438" keyTimes="0;1" type="translate" attributeName="transform"></animateTransform>
  <path transform="scale(0.85)" fill="#f1f2f3" d="M84.717,33.597c0.791-2.503,1.186-5.138,1.186-7.773C85.903,11.594,74.308,0,60.079,0 c-9.881,0-18.445,5.534-22.793,13.702c-1.581-0.527-3.426-0.791-5.138-0.791c-9.486,0-17.128,7.642-17.128,17.128 c0,1.186,0.132,2.372,0.395,3.426C6.719,34.783,0,42.424,0,51.515C0,61.66,8.169,69.829,18.314,69.829h63.373 C91.831,69.829,100,61.66,100,51.515C99.868,42.556,93.281,35.046,84.717,33.597z"></path>
</g><g transform="translate(-100 269.7812490945624) rotate(0)">
  <animateTransform begin="-66.28973571381468s" repeatCount="indefinite" dur="41.666666666666664s" values="-100 269.7812490945624;1900 269.7812490945624" keyTimes="0;1" type="translate" attributeName="transform"></animateTransform>
  <path transform="scale(0.85)" fill="#f1f2f3" d="M84.717,33.597c0.791-2.503,1.186-5.138,1.186-7.773C85.903,11.594,74.308,0,60.079,0 c-9.881,0-18.445,5.534-22.793,13.702c-1.581-0.527-3.426-0.791-5.138-0.791c-9.486,0-17.128,7.642-17.128,17.128 c0,1.186,0.132,2.372,0.395,3.426C6.719,34.783,0,42.424,0,51.515C0,61.66,8.169,69.829,18.314,69.829h63.373 C91.831,69.829,100,61.66,100,51.515C99.868,42.556,93.281,35.046,84.717,33.597z"></path>
</g><g transform="translate(-100 455.78875596639824) rotate(0)">
  <animateTransform begin="-91.07107557777913s" repeatCount="indefinite" dur="41.666666666666664s" values="-100 455.78875596639824;1900 455.78875596639824" keyTimes="0;1" type="translate" attributeName="transform"></animateTransform>
  <path transform="scale(0.85)" fill="#f1f2f3" d="M84.717,33.597c0.791-2.503,1.186-5.138,1.186-7.773C85.903,11.594,74.308,0,60.079,0 c-9.881,0-18.445,5.534-22.793,13.702c-1.581-0.527-3.426-0.791-5.138-0.791c-9.486,0-17.128,7.642-17.128,17.128 c0,1.186,0.132,2.372,0.395,3.426C6.719,34.783,0,42.424,0,51.515C0,61.66,8.169,69.829,18.314,69.829h63.373 C91.831,69.829,100,61.66,100,51.515C99.868,42.556,93.281,35.046,84.717,33.597z"></path>
</g><g transform="translate(-100 162.34144005278281) rotate(0)">
  <animateTransform begin="-112.41007833946038s" repeatCount="indefinite" dur="41.666666666666664s" values="-100 162.34144005278281;1900 162.34144005278281" keyTimes="0;1" type="translate" attributeName="transform"></animateTransform>
  <path transform="scale(0.85)" fill="#f1f2f3" d="M84.717,33.597c0.791-2.503,1.186-5.138,1.186-7.773C85.903,11.594,74.308,0,60.079,0 c-9.881,0-18.445,5.534-22.793,13.702c-1.581-0.527-3.426-0.791-5.138-0.791c-9.486,0-17.128,7.642-17.128,17.128 c0,1.186,0.132,2.372,0.395,3.426C6.719,34.783,0,42.424,0,51.515C0,61.66,8.169,69.829,18.314,69.829h63.373 C91.831,69.829,100,61.66,100,51.515C99.868,42.556,93.281,35.046,84.717,33.597z"></path>
</g><g transform="translate(-100 925.3337755957403) rotate(0)">
  <animateTransform begin="-92.92676611450395s" repeatCount="indefinite" dur="41.666666666666664s" values="-100 925.3337755957403;1900 925.3337755957403" keyTimes="0;1" type="translate" attributeName="transform"></animateTransform>
  <path transform="scale(0.85)" fill="#f1f2f3" d="M84.717,33.597c0.791-2.503,1.186-5.138,1.186-7.773C85.903,11.594,74.308,0,60.079,0 c-9.881,0-18.445,5.534-22.793,13.702c-1.581-0.527-3.426-0.791-5.138-0.791c-9.486,0-17.128,7.642-17.128,17.128 c0,1.186,0.132,2.372,0.395,3.426C6.719,34.783,0,42.424,0,51.515C0,61.66,8.169,69.829,18.314,69.829h63.373 C91.831,69.829,100,61.66,100,51.515C99.868,42.556,93.281,35.046,84.717,33.597z"></path>
</g><g transform="translate(-100 17.110200341146037) rotate(0)">
  <animateTransform begin="-57.32933044324604s" repeatCount="indefinite" dur="41.666666666666664s" values="-100 17.110200341146037;1900 17.110200341146037" keyTimes="0;1" type="translate" attributeName="transform"></animateTransform>
  <path transform="scale(0.85)" fill="#f1f2f3" d="M84.717,33.597c0.791-2.503,1.186-5.138,1.186-7.773C85.903,11.594,74.308,0,60.079,0 c-9.881,0-18.445,5.534-22.793,13.702c-1.581-0.527-3.426-0.791-5.138-0.791c-9.486,0-17.128,7.642-17.128,17.128 c0,1.186,0.132,2.372,0.395,3.426C6.719,34.783,0,42.424,0,51.515C0,61.66,8.169,69.829,18.314,69.829h63.373 C91.831,69.829,100,61.66,100,51.515C99.868,42.556,93.281,35.046,84.717,33.597z"></path>
</g><g transform="translate(-100 545.5463898541886) rotate(0)">
  <animateTransform begin="-117.07389474846934s" repeatCount="indefinite" dur="41.666666666666664s" values="-100 545.5463898541886;1900 545.5463898541886" keyTimes="0;1" type="translate" attributeName="transform"></animateTransform>
  <path transform="scale(0.85)" fill="#f1f2f3" d="M84.717,33.597c0.791-2.503,1.186-5.138,1.186-7.773C85.903,11.594,74.308,0,60.079,0 c-9.881,0-18.445,5.534-22.793,13.702c-1.581-0.527-3.426-0.791-5.138-0.791c-9.486,0-17.128,7.642-17.128,17.128 c0,1.186,0.132,2.372,0.395,3.426C6.719,34.783,0,42.424,0,51.515C0,61.66,8.169,69.829,18.314,69.829h63.373 C91.831,69.829,100,61.66,100,51.515C99.868,42.556,93.281,35.046,84.717,33.597z"></path>
</g><g transform="translate(-100 398.13568229472537) rotate(0)">
  <animateTransform begin="-40.157394600378716s" repeatCount="indefinite" dur="31.25s" values="-100 398.13568229472537;1900 398.13568229472537" keyTimes="0;1" type="translate" attributeName="transform"></animateTransform>
  <path transform="scale(1)" fill="#bddeff" d="M84.717,33.597c0.791-2.503,1.186-5.138,1.186-7.773C85.903,11.594,74.308,0,60.079,0 c-9.881,0-18.445,5.534-22.793,13.702c-1.581-0.527-3.426-0.791-5.138-0.791c-9.486,0-17.128,7.642-17.128,17.128 c0,1.186,0.132,2.372,0.395,3.426C6.719,34.783,0,42.424,0,51.515C0,61.66,8.169,69.829,18.314,69.829h63.373 C91.831,69.829,100,61.66,100,51.515C99.868,42.556,93.281,35.046,84.717,33.597z"></path>
</g><g transform="translate(-100 424.7693941911795) rotate(0)">
  <animateTransform begin="-43.54026280113494s" repeatCount="indefinite" dur="31.25s" values="-100 424.7693941911795;1900 424.7693941911795" keyTimes="0;1" type="translate" attributeName="transform"></animateTransform>
  <path transform="scale(1)" fill="#bddeff" d="M84.717,33.597c0.791-2.503,1.186-5.138,1.186-7.773C85.903,11.594,74.308,0,60.079,0 c-9.881,0-18.445,5.534-22.793,13.702c-1.581-0.527-3.426-0.791-5.138-0.791c-9.486,0-17.128,7.642-17.128,17.128 c0,1.186,0.132,2.372,0.395,3.426C6.719,34.783,0,42.424,0,51.515C0,61.66,8.169,69.829,18.314,69.829h63.373 C91.831,69.829,100,61.66,100,51.515C99.868,42.556,93.281,35.046,84.717,33.597z"></path>
</g><g transform="translate(-100 4.194784924965448) rotate(0)">
  <animateTransform begin="-60.972773004419906s" repeatCount="indefinite" dur="31.25s" values="-100 4.194784924965448;1900 4.194784924965448" keyTimes="0;1" type="translate" attributeName="transform"></animateTransform>
  <path transform="scale(1)" fill="#bddeff" d="M84.717,33.597c0.791-2.503,1.186-5.138,1.186-7.773C85.903,11.594,74.308,0,60.079,0 c-9.881,0-18.445,5.534-22.793,13.702c-1.581-0.527-3.426-0.791-5.138-0.791c-9.486,0-17.128,7.642-17.128,17.128 c0,1.186,0.132,2.372,0.395,3.426C6.719,34.783,0,42.424,0,51.515C0,61.66,8.169,69.829,18.314,69.829h63.373 C91.831,69.829,100,61.66,100,51.515C99.868,42.556,93.281,35.046,84.717,33.597z"></path>
</g><g transform="translate(-100 385.85757258148686) rotate(0)">
  <animateTransform begin="-0.17870706041877005s" repeatCount="indefinite" dur="31.25s" values="-100 385.85757258148686;1900 385.85757258148686" keyTimes="0;1" type="translate" attributeName="transform"></animateTransform>
  <path transform="scale(1)" fill="#bddeff" d="M84.717,33.597c0.791-2.503,1.186-5.138,1.186-7.773C85.903,11.594,74.308,0,60.079,0 c-9.881,0-18.445,5.534-22.793,13.702c-1.581-0.527-3.426-0.791-5.138-0.791c-9.486,0-17.128,7.642-17.128,17.128 c0,1.186,0.132,2.372,0.395,3.426C6.719,34.783,0,42.424,0,51.515C0,61.66,8.169,69.829,18.314,69.829h63.373 C91.831,69.829,100,61.66,100,51.515C99.868,42.556,93.281,35.046,84.717,33.597z"></path>
</g><g transform="translate(-100 418.0718174212444) rotate(0)">
  <animateTransform begin="-8.541868554462217s" repeatCount="indefinite" dur="31.25s" values="-100 418.0718174212444;1900 418.0718174212444" keyTimes="0;1" type="translate" attributeName="transform"></animateTransform>
  <path transform="scale(1)" fill="#bddeff" d="M84.717,33.597c0.791-2.503,1.186-5.138,1.186-7.773C85.903,11.594,74.308,0,60.079,0 c-9.881,0-18.445,5.534-22.793,13.702c-1.581-0.527-3.426-0.791-5.138-0.791c-9.486,0-17.128,7.642-17.128,17.128 c0,1.186,0.132,2.372,0.395,3.426C6.719,34.783,0,42.424,0,51.515C0,61.66,8.169,69.829,18.314,69.829h63.373 C91.831,69.829,100,61.66,100,51.515C99.868,42.556,93.281,35.046,84.717,33.597z"></path>
</g><g transform="translate(-100 709.473508681625) rotate(0)">
  <animateTransform begin="-110.91427219713273s" repeatCount="indefinite" dur="31.25s" values="-100 709.473508681625;1900 709.473508681625" keyTimes="0;1" type="translate" attributeName="transform"></animateTransform>
  <path transform="scale(1)" fill="#bddeff" d="M84.717,33.597c0.791-2.503,1.186-5.138,1.186-7.773C85.903,11.594,74.308,0,60.079,0 c-9.881,0-18.445,5.534-22.793,13.702c-1.581-0.527-3.426-0.791-5.138-0.791c-9.486,0-17.128,7.642-17.128,17.128 c0,1.186,0.132,2.372,0.395,3.426C6.719,34.783,0,42.424,0,51.515C0,61.66,8.169,69.829,18.314,69.829h63.373 C91.831,69.829,100,61.66,100,51.515C99.868,42.556,93.281,35.046,84.717,33.597z"></path>
</g><g transform="translate(-100 376.7192804555916) rotate(0)">
  <animateTransform begin="-119.72629325976442s" repeatCount="indefinite" dur="31.25s" values="-100 376.7192804555916;1900 376.7192804555916" keyTimes="0;1" type="translate" attributeName="transform"></animateTransform>
  <path transform="scale(1)" fill="#bddeff" d="M84.717,33.597c0.791-2.503,1.186-5.138,1.186-7.773C85.903,11.594,74.308,0,60.079,0 c-9.881,0-18.445,5.534-22.793,13.702c-1.581-0.527-3.426-0.791-5.138-0.791c-9.486,0-17.128,7.642-17.128,17.128 c0,1.186,0.132,2.372,0.395,3.426C6.719,34.783,0,42.424,0,51.515C0,61.66,8.169,69.829,18.314,69.829h63.373 C91.831,69.829,100,61.66,100,51.515C99.868,42.556,93.281,35.046,84.717,33.597z"></path>
</g><g transform="translate(-100 141.7691015583425) rotate(0)">
  <animateTransform begin="-95.36266670097659s" repeatCount="indefinite" dur="31.25s" values="-100 141.7691015583425;1900 141.7691015583425" keyTimes="0;1" type="translate" attributeName="transform"></animateTransform>
  <path transform="scale(1)" fill="#bddeff" d="M84.717,33.597c0.791-2.503,1.186-5.138,1.186-7.773C85.903,11.594,74.308,0,60.079,0 c-9.881,0-18.445,5.534-22.793,13.702c-1.581-0.527-3.426-0.791-5.138-0.791c-9.486,0-17.128,7.642-17.128,17.128 c0,1.186,0.132,2.372,0.395,3.426C6.719,34.783,0,42.424,0,51.515C0,61.66,8.169,69.829,18.314,69.829h63.373 C91.831,69.829,100,61.66,100,51.515C99.868,42.556,93.281,35.046,84.717,33.597z"></path>
</g><g transform="translate(-100 521.3999249788947) rotate(0)">
  <animateTransform begin="-66.086070823733s" repeatCount="indefinite" dur="31.25s" values="-100 521.3999249788947;1900 521.3999249788947" keyTimes="0;1" type="translate" attributeName="transform"></animateTransform>
  <path transform="scale(1)" fill="#bddeff" d="M84.717,33.597c0.791-2.503,1.186-5.138,1.186-7.773C85.903,11.594,74.308,0,60.079,0 c-9.881,0-18.445,5.534-22.793,13.702c-1.581-0.527-3.426-0.791-5.138-0.791c-9.486,0-17.128,7.642-17.128,17.128 c0,1.186,0.132,2.372,0.395,3.426C6.719,34.783,0,42.424,0,51.515C0,61.66,8.169,69.829,18.314,69.829h63.373 C91.831,69.829,100,61.66,100,51.515C99.868,42.556,93.281,35.046,84.717,33.597z"></path>
</g><g transform="translate(-100 861.4853177788159) rotate(0)">
  <animateTransform begin="-27.47456818963091s" repeatCount="indefinite" dur="31.25s" values="-100 861.4853177788159;1900 861.4853177788159" keyTimes="0;1" type="translate" attributeName="transform"></animateTransform>
  <path transform="scale(1)" fill="#bddeff" d="M84.717,33.597c0.791-2.503,1.186-5.138,1.186-7.773C85.903,11.594,74.308,0,60.079,0 c-9.881,0-18.445,5.534-22.793,13.702c-1.581-0.527-3.426-0.791-5.138-0.791c-9.486,0-17.128,7.642-17.128,17.128 c0,1.186,0.132,2.372,0.395,3.426C6.719,34.783,0,42.424,0,51.515C0,61.66,8.169,69.829,18.314,69.829h63.373 C91.831,69.829,100,61.66,100,51.515C99.868,42.556,93.281,35.046,84.717,33.597z"></path>
</g><g transform="translate(-100 572.0762331911749) rotate(0)">
  <animateTransform begin="-94.71201341097765s" repeatCount="indefinite" dur="31.25s" values="-100 572.0762331911749;1900 572.0762331911749" keyTimes="0;1" type="translate" attributeName="transform"></animateTransform>
  <path transform="scale(1)" fill="#bddeff" d="M84.717,33.597c0.791-2.503,1.186-5.138,1.186-7.773C85.903,11.594,74.308,0,60.079,0 c-9.881,0-18.445,5.534-22.793,13.702c-1.581-0.527-3.426-0.791-5.138-0.791c-9.486,0-17.128,7.642-17.128,17.128 c0,1.186,0.132,2.372,0.395,3.426C6.719,34.783,0,42.424,0,51.515C0,61.66,8.169,69.829,18.314,69.829h63.373 C91.831,69.829,100,61.66,100,51.515C99.868,42.556,93.281,35.046,84.717,33.597z"></path>
</g><g transform="translate(-100 271.1917051961957) rotate(0)">
  <animateTransform begin="-27.396222119462895s" repeatCount="indefinite" dur="31.25s" values="-100 271.1917051961957;1900 271.1917051961957" keyTimes="0;1" type="translate" attributeName="transform"></animateTransform>
  <path transform="scale(1)" fill="#bddeff" d="M84.717,33.597c0.791-2.503,1.186-5.138,1.186-7.773C85.903,11.594,74.308,0,60.079,0 c-9.881,0-18.445,5.534-22.793,13.702c-1.581-0.527-3.426-0.791-5.138-0.791c-9.486,0-17.128,7.642-17.128,17.128 c0,1.186,0.132,2.372,0.395,3.426C6.719,34.783,0,42.424,0,51.515C0,61.66,8.169,69.829,18.314,69.829h63.373 C91.831,69.829,100,61.66,100,51.515C99.868,42.556,93.281,35.046,84.717,33.597z"></path>
</g><g></g></g><!-- [ldio] generated by https://loading.io --></svg>